<?xml version="1.0" encoding="UTF-8"?>
<svg width="146px" height="70px" viewBox="0 0 146 70" version="1.1" xmlns="http://www.w3.org/2000/svg" xmlns:xlink="http://www.w3.org/1999/xlink">
    <title>Group 10</title>
    <defs>
        <linearGradient x1="15.0254991%" y1="50%" x2="100%" y2="50%" id="linearGradient-1">
            <stop stop-color="#FFFFFF" offset="0%"></stop>
            <stop stop-color="#FFFFFF" stop-opacity="0" offset="100%"></stop>
        </linearGradient>
        <linearGradient x1="104.414637%" y1="54.7962023%" x2="0%" y2="43.2132964%" id="linearGradient-2">
            <stop stop-color="#865CF4" offset="0%"></stop>
            <stop stop-color="#C01C8A" offset="100%"></stop>
        </linearGradient>
        <path d="M12.5258085,0 L68.0456201,0 C71.3593286,-6.08718376e-16 74.0456201,2.6862915 74.0456201,6 C74.0456201,6.55749916 73.9679206,7.11227797 73.8147638,7.64832677 L69.2433352,23.6483268 C68.5073897,26.2241361 66.1530737,28 63.4741915,28 L7.95437991,28 C4.64067141,28 1.95437991,25.3137085 1.95437991,22 C1.95437991,21.4425008 2.03207942,20.887722 2.18523622,20.3516732 L6.75666479,4.35167323 C7.49261032,1.77586389 9.84692632,2.26845951e-15 12.5258085,0 Z" id="path-3"></path>
        <filter x="-29.0%" y="-92.9%" width="197.5%" height="378.6%" filterUnits="objectBoundingBox" id="filter-4">
            <feOffset dx="15" dy="13" in="SourceAlpha" result="shadowOffsetOuter1"></feOffset>
            <feGaussianBlur stdDeviation="10.5" in="shadowOffsetOuter1" result="shadowBlurOuter1"></feGaussianBlur>
            <feColorMatrix values="0 0 0 0 0.721568627   0 0 0 0 0.141176471   0 0 0 0 0.596078431  0 0 0 0.19025896 0" type="matrix" in="shadowBlurOuter1"></feColorMatrix>
        </filter>
    </defs>
    <g id="Page-1" stroke="none" stroke-width="1" fill="none" fill-rule="evenodd">
        <g id="Artboard" transform="translate(-187.000000, -2244.000000)">
            <g id="Group-10" transform="translate(189.000000, 2250.000000)">
                <path d="M14.2462113,0 L133.753789,0 C138.172067,6.29380286e-15 141.753789,3.581722 141.753789,8 C141.753789,8.65409446 141.67357,9.30572017 141.514929,9.940285 L137.514929,25.940285 C136.624595,29.501621 133.42473,32 129.753789,32 L10.2462113,32 C5.82793325,32 2.24621125,28.418278 2.24621125,24 C2.24621125,23.3459055 2.32643004,22.6942798 2.48507125,22.059715 L6.48507125,6.059715 C7.37540525,2.49837899 10.5752701,2.45069779e-15 14.2462113,0 Z" id="Rectangle-Copy-4" fill="url(#linearGradient-1)" opacity="0.250604539"></path>
                <g id="Group-5" transform="translate(3.000000, 2.000000)">
                    <g id="Rectangle-Copy">
                        <use fill="black" fill-opacity="1" filter="url(#filter-4)" xlink:href="#path-3"></use>
                        <use fill="url(#linearGradient-2)" fill-rule="evenodd" xlink:href="#path-3"></use>
                    </g>
                    <text id="2K" opacity="0.5" font-family="Avenir-Roman, Avenir" font-size="12" font-weight="normal" line-spacing="16" fill="#FFFFFF">
                        <tspan x="87.384" y="18">2K</tspan>
                    </text>
                    <text id="1080P" opacity="0.870000005" font-family="Avenir-Black, Avenir" font-size="12" font-weight="700" line-spacing="16" fill="#FFFFFF">
                        <tspan x="20.512" y="18">1080P</tspan>
                    </text>
                    <text id="4K" opacity="0.5" font-family="Avenir-Roman, Avenir" font-size="12" font-weight="normal" line-spacing="16" fill="#FFFFFF">
                        <tspan x="111.884" y="18">4K</tspan>
                    </text>
                </g>
            </g>
        </g>
    </g>
</svg>