<?xml version="1.0" encoding="UTF-8"?>
<svg width="41px" height="32px" viewBox="0 0 41 32" version="1.1" xmlns="http://www.w3.org/2000/svg" xmlns:xlink="http://www.w3.org/1999/xlink">
    <title>Group 14</title>
    <defs>
        <linearGradient x1="15.0254991%" y1="50%" x2="100%" y2="50%" id="linearGradient-1">
            <stop stop-color="#FFFFFF" offset="0%"></stop>
            <stop stop-color="#FFFFFF" stop-opacity="0" offset="100%"></stop>
        </linearGradient>
    </defs>
    <g id="Page-1" stroke="none" stroke-width="1" fill="none" fill-rule="evenodd">
        <g id="Artboard" transform="translate(-459.000000, -2250.000000)">
            <g id="Group-14" transform="translate(459.000000, 2250.000000)">
                <path d="M14.2462113,0 L30.7537887,0 C35.1720667,-8.11624501e-16 38.7537887,3.581722 38.7537887,8 C38.7537887,8.65409446 38.67357,9.30572017 38.5149287,9.940285 L34.5149287,25.940285 C33.6245947,29.501621 30.4247299,32 26.7537887,32 L10.2462113,32 C5.82793325,32 2.24621125,28.418278 2.24621125,24 C2.24621125,23.3459055 2.32643004,22.6942798 2.48507125,22.059715 L6.48507125,6.059715 C7.37540525,2.49837899 10.5752701,2.45069779e-15 14.2462113,0 Z" id="Rectangle-Copy-4" fill="url(#linearGradient-1)" opacity="0.153715588"></path>
                <g id="Group-7" opacity="0.789760045" transform="translate(10.000000, 6.000000)">
                    <g id="ic_flat_2_search-copy">
                        <rect id="Rectangle" x="0" y="0.625" width="20" height="18.75"></rect>
                        <g id="Group" transform="translate(3.750000, 3.125000)" stroke="#FFFFFF" stroke-width="2">
                            <rect id="Rectangle" x="1" y="1.625" width="9.25" height="9.25" rx="4.625"></rect>
                            <line x1="9.375" y1="10" x2="11.875" y2="12.5" id="Path" stroke-linecap="square"></line>
                        </g>
                    </g>
                </g>
            </g>
        </g>
    </g>
</svg>